#N canvas 245 68 908 843 12;
#X obj 64 94 +~;
#X obj 46 716 *~;
#X obj 108 717 *~;
#X obj 188 716 *~;
#X obj 250 717 *~;
#X obj 35 789 outlet~;
#X obj 112 788 outlet~;
#X obj 206 787 outlet~;
#X obj 283 786 outlet~;
#X obj 47 745 *~;
#X obj 109 746 *~;
#X obj 189 745 *~;
#X obj 251 746 *~;
#X obj 68 47 inlet~;
#X obj 62 356 pow~ 2;
#X obj 126 355 pow~ 2;
#X obj 108 384 +~;
#X obj 111 412 sqrt~;
#X obj 63 295 -~;
#X obj 62 325 abs~;
#X obj 123 295 -~;
#X obj 125 321 abs~;
#X obj 156 257 sig~ 1;
#X obj 63 450 -~;
#X obj 55 412 sig~ 2;
#X obj 67 484 clip~ 0 2;
#X obj 224 384 pow~ 2;
#X obj 279 384 pow~ 2;
#X obj 223 416 +~;
#X obj 223 446 sqrt~;
#X obj 204 308 -~;
#X obj 205 341 abs~;
#X obj 316 304 -~;
#X obj 304 344 abs~;
#X obj 267 257 sig~ 1;
#X obj 169 478 -~;
#X obj 167 446 sig~ 2;
#X obj 175 531 *~ 0.5;
#X obj 173 502 clip~ 0 2;
#X obj 318 99 +~;
#X obj 198 102 +~;
#X obj 424 395 pow~ 2;
#X obj 476 393 pow~ 2;
#X obj 424 431 +~;
#X obj 424 461 sqrt~;
#X obj 374 310 -~;
#X obj 375 343 abs~;
#X obj 486 306 -~;
#X obj 474 346 abs~;
#X obj 421 267 sig~ 1;
#X obj 373 495 -~;
#X obj 371 463 sig~ 2;
#X obj 379 548 *~ 0.5;
#X obj 377 519 clip~ 0 2;
#X obj 500 265 sig~ -1;
#X obj 551 390 pow~ 2;
#X obj 624 388 pow~ 2;
#X obj 581 435 +~;
#X obj 581 465 sqrt~;
#X obj 531 314 -~;
#X obj 532 347 abs~;
#X obj 643 310 -~;
#X obj 631 350 abs~;
#X obj 520 509 -~;
#X obj 518 477 sig~ 2;
#X obj 526 562 *~ 0.5;
#X obj 524 533 clip~ 0 2;
#X obj 657 269 sig~ -1;
#X obj 594 263 sig~ -1;
#X obj 55 256 sig~ -1;
#X obj 330 263 sig~ 1;
#X obj 177 556 pow~ 1;
#X obj 381 573 pow~ 1;
#X obj 528 587 pow~ 1;
#X obj 62 534 pow~ 1;
#X obj 65 511 *~ 0.5;
#X obj 198 68 clip~ -1 1;
#X obj 318 71 clip~ -1 1;
#X obj 721 396 pow~ 2;
#X obj 794 394 pow~ 2;
#X obj 752 434 +~;
#X obj 751 471 sqrt~;
#X obj 701 320 -~;
#X obj 702 353 abs~;
#X obj 813 316 -~;
#X obj 801 356 abs~;
#X obj 690 515 -~;
#X obj 696 568 *~ 0.5;
#X obj 698 593 pow~ 1;
#X obj 764 269 sig~ 0;
#X obj 827 275 sig~ 0;
#X obj 142 625 *~ 0.25;
#X obj 212 669 +~;
#X obj 168 671 +~;
#X obj 128 673 +~;
#X obj 84 675 +~;
#X obj 694 539 clip~ 0 1;
#X obj 688 483 sig~ 1;
#X obj 198 39 inlet~;
#X obj 319 36 inlet~;
#X obj 452 35 inlet~;
#X connect 0 0 1 0;
#X connect 0 0 2 0;
#X connect 0 0 3 0;
#X connect 0 0 4 0;
#X connect 1 0 9 0;
#X connect 2 0 10 0;
#X connect 3 0 11 0;
#X connect 4 0 12 0;
#X connect 9 0 5 0;
#X connect 10 0 6 0;
#X connect 11 0 7 0;
#X connect 12 0 8 0;
#X connect 13 0 0 0;
#X connect 14 0 16 0;
#X connect 15 0 16 1;
#X connect 16 0 17 0;
#X connect 17 0 23 1;
#X connect 18 0 19 0;
#X connect 19 0 14 0;
#X connect 20 0 21 0;
#X connect 21 0 15 0;
#X connect 22 0 20 1;
#X connect 23 0 25 0;
#X connect 24 0 23 0;
#X connect 25 0 75 0;
#X connect 26 0 28 0;
#X connect 27 0 28 1;
#X connect 28 0 29 0;
#X connect 29 0 35 1;
#X connect 30 0 31 0;
#X connect 31 0 26 0;
#X connect 32 0 33 0;
#X connect 33 0 27 0;
#X connect 34 0 30 1;
#X connect 35 0 38 0;
#X connect 36 0 35 0;
#X connect 37 0 71 0;
#X connect 38 0 37 0;
#X connect 39 0 20 0;
#X connect 39 0 32 0;
#X connect 39 0 47 0;
#X connect 39 0 61 0;
#X connect 39 0 84 0;
#X connect 40 0 18 0;
#X connect 40 0 30 0;
#X connect 40 0 45 0;
#X connect 40 0 59 0;
#X connect 40 0 82 0;
#X connect 41 0 43 0;
#X connect 42 0 43 1;
#X connect 43 0 44 0;
#X connect 44 0 50 1;
#X connect 45 0 46 0;
#X connect 46 0 41 0;
#X connect 47 0 48 0;
#X connect 48 0 42 0;
#X connect 49 0 45 1;
#X connect 50 0 53 0;
#X connect 51 0 50 0;
#X connect 52 0 72 0;
#X connect 53 0 52 0;
#X connect 54 0 47 1;
#X connect 55 0 57 0;
#X connect 56 0 57 1;
#X connect 57 0 58 0;
#X connect 58 0 63 1;
#X connect 59 0 60 0;
#X connect 60 0 55 0;
#X connect 61 0 62 0;
#X connect 62 0 56 0;
#X connect 63 0 66 0;
#X connect 64 0 63 0;
#X connect 65 0 73 0;
#X connect 66 0 65 0;
#X connect 67 0 61 1;
#X connect 68 0 59 1;
#X connect 69 0 18 1;
#X connect 70 0 32 1;
#X connect 71 0 94 0;
#X connect 72 0 93 0;
#X connect 73 0 92 0;
#X connect 74 0 95 0;
#X connect 75 0 74 0;
#X connect 76 0 40 0;
#X connect 77 0 39 0;
#X connect 78 0 80 0;
#X connect 79 0 80 1;
#X connect 80 0 81 0;
#X connect 81 0 86 1;
#X connect 82 0 83 0;
#X connect 83 0 78 0;
#X connect 84 0 85 0;
#X connect 85 0 79 0;
#X connect 86 0 96 0;
#X connect 87 0 88 0;
#X connect 88 0 91 0;
#X connect 89 0 82 1;
#X connect 90 0 84 1;
#X connect 91 0 92 1;
#X connect 91 0 93 1;
#X connect 91 0 95 1;
#X connect 91 0 94 1;
#X connect 92 0 4 1;
#X connect 93 0 3 1;
#X connect 94 0 2 1;
#X connect 95 0 1 1;
#X connect 96 0 87 0;
#X connect 97 0 86 0;
#X connect 98 0 76 0;
#X connect 99 0 77 0;
#X connect 100 0 12 1;
#X connect 100 0 11 1;
#X connect 100 0 10 1;
#X connect 100 0 9 1;
